# AST/ASF file generated using VICON BodyLanguage
# -----------------------------------------------
:version 1.10
:name VICON
:units
  mass 1.0
  length 0.45
  angle deg
:documentation
   .ast/.asf automatically generated from VICON data using
   VICON BodyBuilder and BodyLanguage model FoxedUp or BRILLIANT.MOD
:root
   order TX TY TZ RX RY RZ
   axis XYZ
   position 0 0 0  
   orientation 0 0 0 
:bonedata
  begin
     id 1 
     name lhipjoint
     direction 0.560651 -0.75055 0.34978 
     length 2.44936 
     axis 0 0 0  XYZ
  end
  begin
     id 2 
     name lfemur
     direction 0.34202 -0.939693 0  
     length 7.42139  
     axis 0 0 20  XYZ
    dof rx ry rz
    limits (-160.0 20.0)
           (-70.0 70.0)
           (-60.0 70.0)
  end
  begin
     id 3 
     name ltibia
     direction 0.34202 -0.939693 0   
     length 7.75674   
     axis 0 0 20   XYZ
    dof rx
    limits (-10.0 170.0)
  end
  begin
     id 4 
     name lfoot
     direction 0.0925879 -0.254383 0.962661   
     length 2.38688   
     axis -90 7.62852e-016 20   XYZ
    dof rx rz
    limits (-45.0 90.0)
           (-70.0 20.0)
  end
  begin
     id 5 
     name ltoes
     direction 1.53567e-011 -4.21973e-011 1   
     length 1.19228   
     axis -90 7.62852e-016 20   XYZ
    dof rx
    limits (-90.0 20.0)
  end
  begin
     id 6 
     name rhipjoint
     direction -0.540087 -0.762838 0.355506   
     length 2.4099  
     axis 0 0 0  XYZ 
  end
  begin
     id 7 
     name rfemur
     direction -0.34202 -0.939693 0   
     length 7.70794   
     axis 0 0 -20   XYZ
    dof rx ry rz
    limits (-160.0 20.0)
           (-70.0 70.0)
           (-70.0 60.0)
  end
  begin
     id 8 
     name rtibia
     direction -0.34202 -0.939693 0   
     length 7.66106   
     axis 0 0 -20   XYZ
    dof rx
    limits (-10.0 170.0)
 end
 begin
     id 9 
     name rfoot
     direction -0.0830975 -0.228308 0.970036   
     length 2.4989  
     axis -90 -7.62852e-016 -20   XYZ
    dof rx rz
    limits (-45.0 90.0)
           (-20.0 70.0)
  end
  begin
     id 10 
     name rtoes
     direction -1.53517e-011 -4.21842e-011 1   
     length 1.2498   
     axis -90 -7.62852e-016 -20   XYZ
    dof rx
    limits (-90.0 20.0)
  end
  begin
     id 11 
     name lowerback
     direction 0.0266356 0.99402 -0.105896   
     length 2.1545   
     axis 0 0 0   XYZ
    dof rx ry rz
    limits (-20.0 45.0)
           (-30.0 30.0)
           (-30.0 30.0)
  end
  begin
     id 12 
     name upperback
     direction 0.0130547 0.999192 0.0380027   
     length 2.1434   
     axis 0 0 0   XYZ
    dof rx ry rz
    limits (-20.0 45.0)
           (-30.0 30.0)
           (-30.0 30.0)
  end
  begin
     id 13 
     name thorax
     direction 0.000590299 0.996288 0.0860764   
     length 2.19049   
     axis 0 0 0   XYZ
    dof rx ry rz
    limits (-20.0 45.0)
           (-30.0 30.0)
           (-30.0 30.0)
  end
  begin
     id 14 
     name lowerneck
     direction -0.0432125 0.978219 0.203028   
     length 1.62441   
     axis 0 0 0   XYZ
    dof rx ry rz
    limits (-20.0 45.0)
           (-30.0 30.0)
           (-30.0 30.0)
  end
  begin
     id 15 
     name upperneck
     direction -0.0192309 0.991699 -0.127138   
     length 1.66666   
     axis 0 0 0   XYZ
    dof rx ry rz
    limits (-20.0 45.0)
           (-30.0 30.0)
           (-30.0 30.0)
  end
  begin
     id 16
     name head
     direction -0.00434499 0.997882 -0.0649107  
     length 1.67142  
     axis 0 0 0   XYZ
    dof rx ry rz
    limits (-20.0 45.0)
           (-30.0 30.0)
           (-30.0 30.0)
  end
  begin
     id 17 
     name lclavicle
     direction 0.970351 0.240904 -0.0196058  
     length 4.04862  
     axis 0 0 0   XYZ
    dof ry rz
    limits (-20.0 10.0)
           (0.0 20.0)
  end
  begin
     id 18 
     name lhumerus
     direction 1 -4.4896e-011 -1.40911e-018   
     length 5.58345   
     axis 180 -30 -90   XYZ
    dof rx ry rz
    limits (-60.0 90.0)
           (-90.0 90.0)
           (-90.0 90.0)
  end
  begin
     id 19
     name lradius
     direction 1 -4.48968e-011 5.88912e-028   
     length 3.71087   
     axis 180 -30 -90   XYZ
    dof rx
    limits (-10.0 170.0)
  end
  begin
     id 20
     name lwrist
     direction 1 -4.48955e-011 -8.83775e-028   
     length 1.85544   
     axis 5.52448e-016 90 90   XYZ
    dof ry
    limits (-180.0 0.0)
 end
  begin
     id 21 
     name lhand
     direction 1 -4.49035e-011 -1.76755e-027   
     length 0.562322   
     axis 1.12785e-015 90 90   XYZ
    dof rx rz
    limits (-90.0 90.0)
           (-45.0 45.0)
  end
  begin
     id 22 
     name lfingers
     direction 1 -4.48824e-011 -3.5351e-027   
     length 0.453359   
     axis 2.2557e-015 90 90   XYZ
    dof rx
    limits (0.0 90.0)
  end
  begin
     id 23
     name lthumb
     direction 0.707107 -6.34888e-011 0.707107   
     length 0.650935   
     axis -90 45 2.85299e-015   XYZ
    dof rx rz
    limits (-45.0 45.0)
           (-45.0 45.0)
  end
  begin
     id 24 
     name rclavicle
     direction -0.96165 0.268562 -0.0557131   
     length 4.05446  
     axis 0 0 0   XYZ 
    dof ry rz
    limits (-10.0 20.0)
           (-20.0 0.0)
  end
  begin
     id 25 
     name rhumerus
     direction -1 -4.48957e-011 -3.36329e-027  
     length 5.20357   
     axis 180 30 90   XYZ
    dof rx ry rz
    limits (-90.0 60.0)
           (-90.0 90.0)
           (-90.0 90.0)
  end
  begin
     id 26 
     name rradius
     direction -1 -4.48974e-011 4.51441e-027   
     length 3.64937   
     axis 180 30 90   XYZ
    dof rx
    limits (-10.0 170.0)
  end
  begin
     id 27 
     name rwrist
     direction -1 -4.4896e-011 -8.83775e-028   
     length 1.82468   
     axis 5.52448e-016 -90 -90   XYZ
    dof ry
    limits (-180.0 0.0)
  end
  begin
     id 28
     name rhand
     direction -1 -4.48996e-011 -1.76755e-027   
     length 0.617996   
     axis 1.12785e-015 -90 -90   XYZ
    dof rx rz
    limits (-90.0 90.0)
           (-45.0 45.0)
  end
  begin
     id 29
     name rfingers
     direction -1 -4.48957e-011 -3.5351e-027   
     length 0.498244   
     axis 2.2557e-015 -90 -90   XYZ
    dof rx
    limits (0.0 90.0)
  end
  begin
     id 30
     name rthumb
     direction -0.707107 -6.34931e-011 0.707107   
     length 0.715382   
     axis -90 -45 -2.85299e-015   XYZ
    dof rx rz
    limits (-45.0 45.0)
           (-45.0 45.0)
  end
:hierarchy
  begin
    root lhipjoint rhipjoint lowerback
    lhipjoint lfemur
    lfemur ltibia
    ltibia lfoot
    lfoot ltoes
    rhipjoint rfemur
    rfemur rtibia
    rtibia rfoot
    rfoot rtoes
    lowerback upperback
    upperback thorax
    thorax lowerneck lclavicle rclavicle
    lowerneck upperneck
    upperneck head
    lclavicle lhumerus
    lhumerus lradius
    lradius lwrist
    lwrist lhand lthumb
    lhand lfingers
    rclavicle rhumerus
    rhumerus rradius
    rradius rwrist
    rwrist rhand rthumb
    rhand rfingers
  end

#!OML:ASF H:\ManfredETheater\Project 1\Capture day 2\Session 1\Male1.ASF
:FULLY-SPECIFIED
:DEGREES
95
root 1.78043 17.9833 13.1633 -5.2519 5.40173 -2.59937
lowerback 7.23167 -0.209644 3.60828
upperback -1.69945 0.243761 3.18733
thorax -5.84124 0.0552119 1.26981
lowerneck -21.2276 -0.473975 -1.51426
upperneck 25.2253 1.30254 -4.8326
head 11.845 -0.208709 -1.33882
rclavicle 1.68967e-015 1.43125e-014
rhumerus -28.6856 -8.01284 -80.9125
rradius 39.2761
rwrist -1.44852
rhand -31.3363 -8.65806
rfingers 7.12502
rthumb -4.60792 -38.5879
lclavicle 1.68967e-015 1.43125e-014
lhumerus -47.901 -2.56798 89.1738
lradius 47.8098
lwrist -9.91687
lhand 0.51033 6.07249
lfingers 7.12502
lthumb 26.0791 34.3021
rfemur -11.5378 -2.91897 25.5078
rtibia 32.9301
rfoot -9.05595 -3.11232
rtoes 8.57695
lfemur -12.512 -6.20052 -15.6178
ltibia 31.2797
lfoot -8.28891 -3.63892
ltoes 5.10585
96
root 1.79139 17.9932 13.2544 -5.06189 5.32496 -2.54341
lowerback 7.03943 -0.21898 3.58244
upperback -1.72365 0.219504 3.20713
thorax -5.75729 0.0451541 1.30684
lowerneck -21.4074 -0.463504 -1.53297
upperneck 25.2667 1.34629 -4.87901
head 11.8983 -0.200527 -1.34816
rclavicle -1.61016e-014 4.77083e-015
rhumerus -28.7273 -8.06287 -80.809
rradius 38.7004
rwrist -1.4166
rhand -31.1624 -8.73036
rfingers 7.12502
rthumb -4.43999 -38.6638
lclavicle -1.61016e-014 4.77083e-015
lhumerus -47.9164 -2.95657 89.4542
lradius 47.3392
lwrist -10.1285
lhand 1.52781 6.20287
lfingers 7.12502
lthumb 27.0529 34.2851
rfemur -11.2515 -2.97671 25.4236
rtibia 32.6646
rfoot -9.277 -2.93931
rtoes 8.60776
lfemur -12.2105 -6.2289 -15.7339
ltibia 31.0518
lfoot -8.57464 -3.39382
ltoes 5.18203
97
root 1.79872 18.0016 13.3411 -4.90407 5.1813 -2.64065
lowerback 6.97097 -0.214384 3.67603
upperback -1.80937 0.23732 3.26005
thorax -5.80889 0.0507619 1.30835
lowerneck -21.4539 -0.423947 -1.4944
upperneck 25.2902 1.40716 -4.93038
head 11.9189 -0.177553 -1.3648
rclavicle 2.98177e-015 -3.18055e-014
rhumerus -28.9301 -8.15989 -80.6887
rradius 38.1907
rwrist -1.10848
rhand -30.8016 -8.86674
rfingers 7.12502
rthumb -4.09151 -38.8072
lclavicle 2.98177e-015 -3.18055e-014
lhumerus -47.9856 -3.25122 89.6593
lradius 46.8331
lwrist -10.3471
lhand 2.23856 6.02311
lfingers 7.12502
lthumb 27.7327 33.9978
rfemur -10.982 -2.88525 25.5392
rtibia 32.4206
rfoot -9.47518 -2.85593
rtoes 8.78329
lfemur -11.9577 -6.2029 -15.6499
ltibia 30.9177
lfoot -8.87936 -3.17882
ltoes 5.16552
98
root 1.81027 18.0087 13.4266 -4.73161 5.09955 -2.76213
lowerback 6.7943 -0.263131 3.80716
upperback -1.87342 0.179983 3.32403
thorax -5.77628 0.0190916 1.30817
lowerneck -21.4418 -0.361061 -1.42689
upperneck 25.258 1.49239 -5.00421
head 11.9072 -0.141976 -1.38933
rclavicle -1.60022e-014 2.46493e-014
rhumerus -29.1017 -8.07974 -80.6311
rradius 37.6885
rwrist -0.868957
rhand -30.6121 -8.88141
rfingers 7.12502
rthumb -3.90859 -38.8253
lclavicle -1.60022e-014 2.46493e-014
lhumerus -48.0092 -3.39783 89.7909
lradius 46.325
lwrist -10.4856
lhand 3.14883 6.05801
lfingers 7.12502
lthumb 28.6028 33.8894
rfemur -10.7651 -3.01283 25.6355
rtibia 32.2214
rfoot -9.65421 -2.6195
rtoes 8.84035
lfemur -11.7501 -6.17929 -15.5531
ltibia 30.8056
lfoot -9.18195 -3.03662
ltoes 5.24629
99
root 1.81876 18.0138 13.5051 -4.55077 4.96912 -2.96209
lowerback 6.70751 -0.273996 4.00597
upperback -1.95341 0.18707 3.4145
thorax -5.81181 0.0165084 1.29125
lowerneck -21.4328 -0.324731 -1.33903
upperneck 25.1981 1.55071 -5.14402
head 11.886 -0.12474 -1.44601
rclavicle -6.36111e-015 4.85035e-014
rhumerus -29.2471 -8.0996 -80.511
rradius 37.156
rwrist -0.523468
rhand -30.4023 -8.87846
rfingers 7.12502
rthumb -3.70593 -38.826
lclavicle -6.36111e-015 4.85035e-014
lhumerus -47.9219 -3.40406 89.8963
lradius 45.7046
lwrist -10.5975
lhand 4.15718 6.01401
lfingers 7.12502
lthumb 29.5658 33.679
rfemur -10.6071 -2.95358 25.8554
rtibia 32.0376
rfoot -9.79928 -2.52715
rtoes 8.89162
lfemur -11.6248 -6.144 -15.3382
ltibia 30.7639
lfoot -9.46716 -2.90626
ltoes 5.21467
100
root 1.83139 18.0197 13.5855 -4.32034 4.95766 -2.93021
lowerback 6.49469 -0.298997 3.99598
upperback -1.99989 0.142343 3.43682
thorax -5.73963 -0.00430001 1.32416
lowerneck -21.5162 -0.286255 -1.31568
upperneck 25.1622 1.61517 -5.20161
head 11.8912 -0.101824 -1.46105
rclavicle -5.06901e-015 9.54166e-015
rhumerus -29.3901 -8.19744 -80.3684
rradius 36.6344
rwrist 0.0598384
rhand -30.2174 -8.92343
rfingers 7.12502
rthumb -3.52738 -38.874
lclavicle -5.06901e-015 9.54166e-015
lhumerus -47.698 -3.23716 89.896
lradius 45.0341
lwrist -10.8086
lhand 4.93251 5.91429
lfingers 7.12502
lthumb 30.3056 33.4458
rfemur -10.5047 -3.11861 25.7705
rtibia 31.9264
rfoot -9.98779 -2.29813
rtoes 8.85711
lfemur -11.524 -6.18581 -15.4099
ltibia 30.6994
lfoot -9.72615 -2.82202
ltoes 5.26699
101
root 1.83868 18.0238 13.6607 -4.11596 4.85192 -3.15645
lowerback 6.34322 -0.312543 4.17282
upperback -2.0774 0.139725 3.54664
thorax -5.73583 -0.0101244 1.34031
lowerneck -21.478 -0.236426 -1.26556
upperneck 25.0906 1.68676 -5.28209
head 11.8593 -0.073639 -1.48643
rclavicle -1.98785e-016 7.95139e-016
rhumerus -29.5483 -8.25184 -80.2266
rradius 36.0703
rwrist 0.581733
rhand -29.8708 -8.95304
rfingers 7.12502
rthumb -3.19273 -38.9089
lclavicle -1.98785e-016 7.95139e-016
lhumerus -47.4942 -2.91905 89.8321
lradius 44.3554
lwrist -11.0193
lhand 5.42095 5.78544
lfingers 7.12502
lthumb 30.7714 33.2302
rfemur -10.4166 -3.06169 26.0362
rtibia 31.8188
rfoot -10.1405 -2.28738
rtoes 8.44736
lfemur -11.4639 -6.17273 -15.1452
ltibia 30.6688
lfoot -9.96605 -2.76313
ltoes 5.32991
102
root 1.85048 18.0315 13.7343 -3.84397 4.8414 -3.10044
lowerback 6.13322 -0.313207 4.12688
upperback -2.13362 0.125047 3.57447
thorax -5.6752 -0.0148936 1.39563
lowerneck -21.5665 -0.212143 -1.17784
upperneck 25.0402 1.73822 -5.44412
head 11.8616 -0.0639937 -1.55339
rclavicle -8.24956e-015 -3.4191e-014
rhumerus -29.6616 -8.41395 -80.0072
rradius 35.5353
rwrist 1.13868
rhand -29.5755 -9.15794
rfingers 7.12502
rthumb -2.90747 -39.1179
lclavicle -8.24956e-015 -3.4191e-014
lhumerus -47.1643 -2.51163 89.7352
lradius 43.6439
lwrist -11.1943
lhand 5.84641 5.67719
lfingers 7.12502
lthumb 31.177 33.0448
rfemur -10.405 -3.10956 25.9397
rtibia 31.7749
rfoot -10.3473 -2.15651
rtoes 8.82824
lfemur -11.4317 -6.18152 -15.2238
ltibia 30.5921
lfoot -10.1779 -2.74818
ltoes 5.38438
103
root 1.85644 18.0347 13.8078 -3.64176 4.79344 -3.1914
lowerback 5.92943 -0.346059 4.10838
upperback -2.17343 0.0721506 3.65493
thorax -5.60133 -0.0382303 1.49449
lowerneck -21.5372 -0.134844 -1.07511
upperneck 24.9508 1.83199 -5.53367
head 11.8258 -0.0216215 -1.58707
rclavicle 2.68359e-015 3.18055e-014
rhumerus -29.7922 -8.59203 -79.8502
rradius 34.9557
rwrist 1.70355
rhand -29.4248 -9.07791
rfingers 7.12502
rthumb -2.76199 -39.0398
lclavicle 2.68359e-015 3.18055e-014
lhumerus -46.8278 -1.78511 89.4431
lradius 42.9179
lwrist -11.4542
lhand 6.275 5.7282
lfingers 7.12502
lthumb 31.5853 33.0164
rfemur -10.3495 -2.97169 26.0621
rtibia 31.7074
rfoot -10.4943 -2.26165
rtoes 8.6816
lfemur -11.3765 -6.16928 -15.1103
ltibia 30.5537
lfoot -10.3771 -2.75129
ltoes 5.33646
104
root 1.86617 18.0411 13.8775 -3.40537 4.78431 -3.15357
lowerback 5.7632 -0.34195 4.04599
upperback -2.23393 0.0656855 3.67717
thorax -5.56998 -0.0388251 1.55257
lowerneck -21.5959 -0.124667 -0.996446
upperneck 24.924 1.8512 -5.64373
head 11.8297 -0.0204351 -1.63843
rclavicle 4.47266e-015 -2.38542e-015
rhumerus -29.9343 -8.92019 -79.6179
rradius 34.3537
rwrist 2.24612
rhand -29.2445 -9.16137
rfingers 7.12502
rthumb -2.58784 -39.1254
lclavicle 4.47266e-015 -2.38542e-015
lhumerus -46.3858 -1.05196 89.1564
lradius 42.0934
lwrist -11.6982
lhand 6.47738 5.82587
lfingers 7.12502
lthumb 31.7781 33.0761
rfemur -10.3006 -2.9833 26.0129
rtibia 31.654
rfoot -10.6834 -2.25317
rtoes 8.58766
lfemur -11.3322 -6.16931 -15.1598
ltibia 30.4879
lfoot -10.5574 -2.75691
ltoes 5.22366
105
root 1.87165 18.0451 13.947 -3.25374 4.73802 -3.22512
lowerback 5.60768 -0.341982 4.00745
upperback -2.24412 0.0566149 3.75485
thorax -5.49209 -0.0397146 1.65481
lowerneck -21.6196 -0.0942659 -0.935294
upperneck 24.8585 1.88917 -5.71068
head 11.8116 -0.0053999 -1.66656
rclavicle -2.14687e-014 -1.43125e-014
rhumerus -30.063 -9.23958 -79.3776
rradius 33.7214
rwrist 2.75091
rhand -29.0601 -9.4501
rfingers 7.12502
rthumb -2.40975 -39.4162
lclavicle -2.14687e-014 -1.43125e-014
lhumerus -45.9368 -0.114592 88.7721
lradius 41.3028
lwrist -11.9974
lhand 6.08753 5.80229
lfingers 7.12502
lthumb 31.4067 33.1254
rfemur -10.1693 -2.78749 26.1221
rtibia 31.5652
rfoot -10.8599 -2.43417
rtoes 8.44634
lfemur -11.2315 -6.16413 -15.0746
ltibia 30.4449
lfoot -10.7176 -2.76072
ltoes 5.32052
106
root 1.88041 18.0482 14.0125 -3.0866 4.72631 -3.2038
lowerback 5.46528 -0.338205 3.94924
upperback -2.25347 0.0487209 3.7704
thorax -5.42043 -0.0406795 1.70303
lowerneck -21.7247 -0.0811841 -0.921596
upperneck 24.8543 1.90206 -5.6977
head 11.8309 0.00187328 -1.6626
rclavicle 8.84592e-015 -1.43125e-014
rhumerus -30.193 -9.75897 -79.122
rradius 33.0756
rwrist 3.28711
rhand -28.9067 -9.53259
rfingers 7.12502
rthumb -2.26162 -39.5003
lclavicle 8.84592e-015 -1.43125e-014
lhumerus -45.4925 0.808376 88.33
lradius 40.627
lwrist -12.4299
lhand 6.10009 6.19408
lfingers 7.12502
lthumb 31.4187 33.5149
rfemur -10.0835 -2.59138 26.0933
rtibia 31.4731
rfoot -10.985 -2.54482
rtoes 9.14468
lfemur -11.149 -6.20029 -15.1179
ltibia 30.4002
lfoot -10.881 -2.71268
ltoes 5.20927
107
root 1.89052 18.0523 14.0808 -2.97818 4.7327 -3.12024
lowerback 5.34911 -0.366527 3.81717
upperback -2.27332 -0.00619897 3.76606
thorax -5.37435 -0.0630595 1.77692
lowerneck -21.6578 -0.035441 -0.769858
upperneck 24.7879 1.9319 -5.78292
head 11.7949 0.0210274 -1.71343
rclavicle -2.69353e-014 2.38542e-014
rhumerus -30.3581 -10.2292 -78.879
rradius 32.3543
rwrist 3.72717
rhand -28.922 -9.35925
rfingers 7.12502
rthumb -2.27636 -39.3269
lclavicle -2.69353e-014 2.38542e-014
lhumerus -45.1339 1.89413 87.8161
lradius 39.9537
lwrist -12.7374
lhand 5.90073 6.4805
lfingers 7.12502
lthumb 31.2287 33.8381
rfemur -9.87142 -2.54401 25.9871
rtibia 31.3631
rfoot -11.1673 -2.59797
rtoes 8.9919
lfemur -10.9762 -6.23169 -15.254
ltibia 30.3632
lfoot -11.0673 -2.65705
ltoes 5.15757
108
root 1.89733 18.0548 14.1441 -2.89908 4.66188 -3.19281
lowerback 5.2849 -0.323821 3.84448
upperback -2.26728 0.050227 3.80368
thorax -5.33174 -0.0349783 1.79453
lowerneck -21.781 -0.0753254 -0.853007
upperneck 24.8415 1.88398 -5.68924
head 11.8364 0.000912314 -1.6741
rclavicle 1.37161e-014 3.18055e-015
rhumerus -30.5718 -10.9879 -78.5151
rradius 31.7144
rwrist 4.19699
rhand -28.8062 -9.44222
rfingers 7.12502
rthumb -2.16458 -39.411
lclavicle 1.37161e-014 3.18055e-015
lhumerus -44.7372 2.87826 87.3667
lradius 39.3516
lwrist -13.1004
lhand 5.47646 6.72101
lfingers 7.12502
lthumb 30.8243 34.1558
rfemur -9.65401 -2.29304 26.0978
rtibia 31.2308
rfoot -11.321 -2.81692
rtoes 8.79514
lfemur -10.8102 -6.23988 -15.2008
ltibia 30.3396
lfoot -11.2443 -2.54073
ltoes 5.10885
